<svg width="149" height="33" viewBox="0 0 149 33" fill="none" xmlns="http://www.w3.org/2000/svg">
<path d="M38.3605 7.99791V2.65543H36.1953V1.83594H41.4503V2.65543H39.2851V7.99791H38.3605Z" fill="#002854"/>
<path d="M43.4668 8.08334C43.1197 8.08334 42.8156 8.00916 42.5512 7.86396C42.2867 7.71824 42.0811 7.50999 41.9312 7.24345C41.7807 6.97745 41.707 6.67275 41.707 6.33256V3.51562H42.5872V6.1826C42.5872 6.52915 42.6879 6.8047 42.8914 7.01083C43.0932 7.21696 43.3661 7.31976 43.7063 7.31976C43.9416 7.31976 44.1541 7.26836 44.3443 7.16503C44.5351 7.06223 44.6893 6.91651 44.8059 6.72892V3.51562H45.6855V7.99591H44.8059V7.53914C44.4588 7.90424 44.0131 8.08546 43.4668 8.08546V8.08334Z" fill="#002854"/>
<path d="M46.7248 7.99953V3.51924H47.6044V3.97601C47.9515 3.61356 48.3993 3.42969 48.9504 3.42969C49.2974 3.42969 49.5995 3.50387 49.8618 3.64907C50.1235 3.79691 50.327 4.00092 50.477 4.2648C50.6275 4.52922 50.7011 4.83392 50.7011 5.181V7.99741H49.821V5.33096C49.821 4.97911 49.7203 4.70144 49.521 4.49796C49.3218 4.2966 49.0489 4.19327 48.7018 4.19327C48.4666 4.19327 48.2562 4.24467 48.0723 4.348C47.8868 4.4508 47.73 4.59652 47.6023 4.78464V7.99741H46.7227L46.7248 7.99953Z" fill="#002854"/>
<path d="M53.9245 9.88371C53.6018 9.88371 53.2838 9.84556 52.9728 9.76925C52.6612 9.69348 52.3793 9.58326 52.1287 9.44495L52.471 8.75714C52.7285 8.88697 52.9749 8.98129 53.2054 9.04382C53.4359 9.10635 53.6669 9.13549 53.8975 9.13549C54.2959 9.13549 54.598 9.04859 54.7999 8.8716C55.0012 8.69462 55.104 8.4302 55.104 8.07888V7.56859C54.7167 7.87964 54.2689 8.03437 53.7586 8.03437C53.3421 8.03437 52.9638 7.93104 52.6236 7.72491C52.2829 7.5193 52.0121 7.24164 51.8086 6.89455C51.6067 6.54535 51.5039 6.16012 51.5039 5.73673C51.5039 5.31387 51.6067 4.91962 51.8128 4.57042C52.019 4.22122 52.2919 3.94567 52.6368 3.74219C52.9791 3.5403 53.3623 3.4375 53.7856 3.4375C54.0315 3.4375 54.2689 3.47565 54.4931 3.55143C54.7193 3.62774 54.9297 3.74219 55.122 3.89427V3.51593H55.9842V8.06563C55.9842 8.65223 55.8072 9.09999 55.4559 9.41104C55.104 9.72209 54.5937 9.87682 53.9245 9.87682V9.88371ZM53.8704 7.27714C54.1237 7.27714 54.3563 7.23051 54.5715 7.13619C54.7861 7.0424 54.9631 6.91257 55.104 6.74883V4.72462C54.97 4.56565 54.793 4.4406 54.5757 4.34628C54.3585 4.25248 54.1237 4.20532 53.8726 4.20532C53.5906 4.20532 53.3374 4.2705 53.1116 4.40244C52.8853 4.53439 52.7062 4.71615 52.5743 4.94877C52.4418 5.1814 52.3772 5.4437 52.3772 5.73673C52.3772 6.03029 52.4418 6.28305 52.5743 6.51621C52.7062 6.74883 52.8875 6.93271 53.1159 7.07154C53.3442 7.21037 53.5975 7.27714 53.8726 7.27714H53.8704Z" fill="#002854"/>
<path d="M58.5705 8.08881C58.1832 8.08881 57.8207 8.03052 57.4848 7.91659C57.1467 7.80213 56.8558 7.63627 56.6094 7.41955L57.0842 6.83931C57.3189 7.02742 57.5584 7.16838 57.8048 7.2627C58.0512 7.35649 58.2976 7.40365 58.5435 7.40365C58.8614 7.40365 59.119 7.34324 59.3182 7.22242C59.5175 7.10161 59.6187 6.94264 59.6187 6.7434C59.6187 6.57966 59.5604 6.44984 59.4417 6.35604C59.3251 6.26172 59.1418 6.19707 58.8954 6.16316L58.0846 6.04923C57.6326 5.98405 57.2967 5.84734 57.0773 5.63485C56.8579 5.42236 56.7482 5.14205 56.7482 4.79072C56.7482 4.5263 56.8219 4.29156 56.9676 4.08755C57.1128 3.88195 57.3189 3.7251 57.5833 3.61276C57.8472 3.50095 58.1519 3.44531 58.499 3.44531C58.8461 3.44531 59.1481 3.48983 59.4459 3.5815C59.7416 3.6737 60.0283 3.81677 60.3038 4.01813L59.8624 4.59837C59.6097 4.43463 59.3701 4.31382 59.1418 4.23751C58.9134 4.16174 58.6781 4.12358 58.4386 4.12358C58.1678 4.12358 57.9505 4.18187 57.7868 4.2958C57.6236 4.41026 57.5404 4.5581 57.5404 4.74144C57.5404 4.91154 57.5987 5.03924 57.7174 5.12456C57.834 5.20934 58.02 5.27187 58.2727 5.31479L59.0925 5.42872C59.5376 5.4939 59.8762 5.63061 60.1046 5.8431C60.3324 6.05347 60.4469 6.33591 60.4469 6.68723C60.4469 6.95112 60.3642 7.19116 60.1963 7.40365C60.0283 7.61879 59.8068 7.78677 59.5265 7.9097C59.2488 8.03264 58.9287 8.0957 58.5705 8.0957V8.08881Z" fill="#002854"/>
<path d="M62.9359 8.07746C62.5082 8.07746 62.1786 7.97678 61.9503 7.777C61.7219 7.57776 61.6079 7.28261 61.6079 6.88836V4.25742H60.6562V3.51875H61.6079V2.38349L62.4791 2.16406V3.51875H63.8086V4.25742H62.4791V6.69601C62.4791 6.91963 62.5305 7.0786 62.6333 7.17504C62.7366 7.27148 62.9041 7.32023 63.1394 7.32023C63.2623 7.32023 63.3725 7.31175 63.4684 7.29374C63.5649 7.27572 63.6703 7.24658 63.7821 7.20631V7.95399C63.6655 7.99426 63.5288 8.02553 63.3725 8.04619C63.2178 8.06633 63.0721 8.07746 62.9359 8.07746Z" fill="#002854"/>
<path d="M66.5198 8.07888C66.0789 8.07888 65.6826 7.9782 65.3265 7.77419C64.9704 7.57283 64.6885 7.29304 64.4781 6.93907C64.2672 6.5835 64.1602 6.18926 64.1602 5.75474C64.1602 5.32023 64.2608 4.93075 64.4643 4.58367C64.6662 4.23659 64.9391 3.96157 65.2793 3.75067C65.62 3.54242 66.0005 3.4375 66.4234 3.4375C66.8467 3.4375 67.2028 3.54242 67.5277 3.75067C67.852 3.95892 68.1116 4.24136 68.3024 4.5948C68.4926 4.95089 68.5885 5.34937 68.5885 5.79714V6.03453H65.0509C65.0912 6.28782 65.1807 6.50932 65.3196 6.69955C65.4584 6.88979 65.6354 7.0424 65.8526 7.15633C66.0699 7.27078 66.3052 7.32907 66.5558 7.32907C66.7794 7.32907 66.9898 7.29304 67.1896 7.22362C67.3888 7.15421 67.5563 7.06041 67.6909 6.94171L68.2462 7.48804C67.9929 7.68728 67.7269 7.83459 67.4445 7.93315C67.1626 8.02959 66.8557 8.07888 66.5198 8.07888ZM65.0578 5.3764H67.7152C67.675 5.14801 67.5902 4.94453 67.4646 4.76543C67.3395 4.58632 67.1848 4.44484 67.0036 4.34204C66.8224 4.23924 66.6184 4.18731 66.3969 4.18731C66.1748 4.18731 65.9692 4.23924 65.7811 4.34204C65.593 4.44484 65.4362 4.58367 65.3106 4.76066C65.1855 4.93764 65.1002 5.14112 65.0599 5.3764H65.0578Z" fill="#002854"/>
<path d="M69.424 7.99953V3.51924H70.3042V3.97601C70.6512 3.61356 71.099 3.42969 71.6496 3.42969C71.9967 3.42969 72.2992 3.50387 72.561 3.64907C72.8233 3.79691 73.0268 4.00092 73.1767 4.2648C73.3267 4.52922 73.4009 4.83392 73.4009 5.181V7.99741H72.5207V5.33096C72.5207 4.97911 72.42 4.70144 72.2208 4.49796C72.0216 4.2966 71.7481 4.19327 71.401 4.19327C71.1663 4.19327 70.9559 4.24467 70.7721 4.348C70.5861 4.4508 70.4297 4.59652 70.302 4.78464V7.99741H69.4219L69.424 7.99953Z" fill="#002854"/>
<path d="M40.7847 28.3291V17.6601H36.3828V15.2734H47.871V17.6601H43.4872V28.3291H40.7826H40.7847Z" fill="#002854"/>
<path d="M51.7325 28.5238C50.7627 28.5238 49.8852 28.3002 49.1015 27.8525C48.3178 27.4047 47.6957 26.798 47.2363 26.0344C46.7774 25.2687 46.5469 24.4198 46.5469 23.4887C46.5469 22.5572 46.7774 21.6882 47.2363 20.9251C47.6957 20.1594 48.3178 19.5569 49.1015 19.116C49.8852 18.6746 50.7606 18.4531 51.7325 18.4531C52.7043 18.4531 53.5797 18.6746 54.3634 19.116C55.1471 19.5569 55.7671 20.1594 56.2281 20.9251C56.6875 21.6908 56.918 22.5439 56.918 23.4887C56.918 24.4336 56.6918 25.2708 56.2371 26.0344C55.783 26.8001 55.1646 27.4047 54.3814 27.8525C53.5977 28.3002 52.7154 28.5238 51.7325 28.5238ZM51.7325 26.303C52.2428 26.303 52.7016 26.1753 53.1118 25.9199C53.5214 25.665 53.8462 25.327 54.081 24.9036C54.3162 24.4807 54.4349 24.0012 54.4349 23.4686C54.4349 22.9355 54.3141 22.4745 54.072 22.0511C53.8303 21.6277 53.5055 21.2923 53.1028 21.0438C52.6974 20.7953 52.2475 20.6697 51.7505 20.6697C51.2534 20.6697 50.7808 20.7953 50.3712 21.0438C49.9615 21.2923 49.6367 21.6277 49.4014 22.0511C49.164 22.4745 49.048 22.9467 49.048 23.4686C49.048 23.99 49.1667 24.4828 49.4014 24.9036C49.6367 25.327 49.9568 25.665 50.3621 25.9199C50.7654 26.1753 51.2222 26.303 51.7325 26.303Z" fill="#002854"/>
<path d="M62.6811 28.4805C61.6107 28.4805 60.8005 28.2341 60.2473 27.7439C59.6941 27.2532 59.4164 26.5416 59.4164 25.6079V20.7403H57.4219V18.6133H59.4164V16.1323L61.9536 15.5547V18.6133H64.7519V20.7403H61.9536V25.0679C61.9536 25.5157 62.0564 25.8363 62.2604 26.0287C62.466 26.221 62.8109 26.3174 63.2947 26.3174C63.5565 26.3174 63.7891 26.3021 63.9931 26.2703C64.1993 26.239 64.425 26.1876 64.6735 26.1113V28.2007C64.4118 28.2876 64.0896 28.3549 63.7043 28.4063C63.3191 28.4556 62.9768 28.4805 62.679 28.4805H62.6811Z" fill="#002854"/>
<path d="M69.0986 28.5052C68.4155 28.5052 67.804 28.3775 67.2715 28.1226C66.7363 27.8672 66.3198 27.5153 66.022 27.0675C65.7242 26.6198 65.5742 26.1047 65.5742 25.5208C65.5742 24.5871 65.9213 23.8638 66.6176 23.3487C67.3139 22.8337 68.2831 22.574 69.5262 22.574C70.3724 22.574 71.1673 22.7038 71.9129 22.9661V22.2561C71.9129 21.6965 71.738 21.2731 71.3909 20.9891C71.0417 20.7024 70.5335 20.5588 69.8616 20.5588C69.4631 20.5588 69.0223 20.624 68.5385 20.7538C68.0526 20.8836 67.5062 21.0871 66.8974 21.3606L65.9838 19.4572C66.7543 19.1217 67.4882 18.8663 68.185 18.6915C68.8813 18.5171 69.5776 18.4297 70.2739 18.4297C71.6039 18.4297 72.6293 18.7434 73.3499 19.3724C74.0711 20.0014 74.4315 20.8858 74.4315 22.0298V28.3351H71.9129V27.6457C71.5144 27.9435 71.0867 28.1629 70.6252 28.299C70.1642 28.4357 69.656 28.5052 69.0959 28.5052H69.0986ZM67.999 25.4646C67.999 25.8387 68.1601 26.1339 68.485 26.3511C68.8071 26.5684 69.2369 26.6781 69.7721 26.6781C70.1955 26.6781 70.5828 26.6288 70.9389 26.5281C71.2924 26.4296 71.6193 26.2663 71.9171 26.0422V24.6253C71.606 24.4885 71.2833 24.3921 70.9479 24.3359C70.612 24.2803 70.2516 24.2533 69.8664 24.2533C69.2819 24.2533 68.8251 24.3587 68.4961 24.5712C68.167 24.7816 68.0012 25.082 68.0012 25.4667L67.999 25.4646Z" fill="#002854"/>
<path d="M76.3711 28.3291V15.2735L78.9257 14.8438V28.3291H76.3711Z" fill="#002854"/>
<path d="M80.4375 28.3291L85.8091 15.2734H88.9413L94.2387 28.3291H91.3099L89.9868 24.9165H84.5776L83.2539 28.3291H80.4375ZM85.417 22.7333H89.1649L87.3177 17.9219L85.4148 22.7333H85.417Z" fill="#002854"/>
<path d="M99.5336 32.3207C98.7748 32.3207 98.0472 32.2423 97.3504 32.0875C96.6541 31.9312 96.0209 31.7118 95.4475 31.4251L96.3431 29.4481C96.8894 29.7099 97.4177 29.9049 97.9285 30.0347C98.4388 30.1645 98.9539 30.2292 99.4753 30.2292C100.221 30.2292 100.79 30.0638 101.182 29.7348C101.573 29.4052 101.768 28.9171 101.768 28.2701V27.5044C100.973 28.0778 100.082 28.3618 99.1017 28.3618C98.1945 28.3618 97.3642 28.1403 96.6117 27.6994C95.8593 27.258 95.2663 26.6603 94.8297 25.9079C94.3951 25.1559 94.1758 24.3208 94.1758 23.4004C94.1758 22.4799 94.3973 21.6475 94.8387 20.9019C95.2795 20.1558 95.8794 19.565 96.6387 19.1305C97.3975 18.6965 98.2486 18.4766 99.1934 18.4766C99.6523 18.4766 100.107 18.5417 100.555 18.6716C101.002 18.8014 101.412 18.9916 101.786 19.2402V18.6069H104.323V28.3062C104.323 29.5869 103.909 30.5741 103.082 31.2704C102.256 31.9667 101.072 32.3138 99.5293 32.3138L99.5336 32.3207ZM99.5156 26.2215C99.975 26.2215 100.398 26.1431 100.783 25.9889C101.168 25.8342 101.497 25.6127 101.77 25.326V21.5399C101.484 21.2532 101.148 21.036 100.763 20.886C100.378 20.736 99.9612 20.6619 99.5134 20.6619C98.9782 20.6619 98.4992 20.7832 98.0785 21.0248C97.6551 21.2665 97.3191 21.5982 97.0706 22.0147C96.8221 22.4307 96.697 22.8943 96.697 23.4046C96.697 23.9398 96.8178 24.4194 97.0595 24.8401C97.3016 25.263 97.6371 25.5989 98.0673 25.8474C98.4971 26.096 98.9782 26.2215 99.5134 26.2215H99.5156Z" fill="#002854"/>
<path d="M107.596 17.4633C107.197 17.4633 106.857 17.3202 106.57 17.0336C106.284 16.7469 106.141 16.3998 106.141 15.9902C106.141 15.5806 106.284 15.2536 106.57 14.9738C106.857 14.6935 107.197 14.5547 107.596 14.5547C107.994 14.5547 108.35 14.6935 108.63 14.9738C108.91 15.2536 109.049 15.5917 109.049 15.9902C109.049 16.3887 108.91 16.749 108.63 17.0336C108.35 17.3202 108.005 17.4633 107.596 17.4633ZM106.326 28.3357V18.6185H108.881V28.3357H106.326Z" fill="#002854"/>
<path d="M110.895 28.3291V15.2735L113.45 14.8438V28.3291H110.895Z" fill="#002854"/>
<path d="M116.733 17.4633C116.334 17.4633 115.994 17.3202 115.708 17.0336C115.421 16.7469 115.277 16.3998 115.277 15.9902C115.277 15.5806 115.421 15.2536 115.708 14.9738C115.994 14.6935 116.334 14.5547 116.733 14.5547C117.131 14.5547 117.488 14.6935 117.767 14.9738C118.047 15.2536 118.186 15.5917 118.186 15.9902C118.186 16.3887 118.047 16.749 117.767 17.0336C117.488 17.3202 117.143 17.4633 116.733 17.4633ZM115.465 28.3357V18.6185H118.02V28.3357H115.465Z" fill="#002854"/>
<path d="M124.623 28.4805C123.552 28.4805 122.742 28.2341 122.189 27.7439C121.635 27.2532 121.358 26.5416 121.358 25.6079V20.7403H119.363V18.6133H121.358V16.1323L123.895 15.5547V18.6133H126.693V20.7403H123.895V25.0679C123.895 25.5157 123.998 25.8363 124.202 26.0287C124.407 26.221 124.752 26.3174 125.236 26.3174C125.498 26.3174 125.731 26.3021 125.935 26.2703C126.141 26.239 126.367 26.1876 126.615 26.1113V28.2007C126.353 28.2876 126.031 28.3549 125.646 28.4063C125.261 28.4556 124.918 28.4805 124.62 28.4805H124.623Z" fill="#002854"/>
<path d="M129.098 32.3649C128.873 32.3649 128.658 32.3559 128.455 32.3357C128.249 32.3177 128.085 32.2822 127.96 32.2329V30.0497C128.184 30.099 128.475 30.1234 128.837 30.1234C129.771 30.1234 130.416 29.6825 130.777 28.8002L130.927 28.4086L127.141 18.6172H129.975L132.382 25.2383L135.125 18.6172H137.885L133.41 29.1182C133.074 29.8886 132.707 30.5134 132.31 30.9924C131.912 31.4715 131.455 31.8185 130.94 32.0358C130.423 32.2531 129.811 32.3627 129.102 32.3627L129.098 32.3649Z" fill="#002854"/>
<path d="M140.473 20.4029V15.7949H138.59V15.2734H142.936V15.7949H141.053V20.4029H140.475H140.473ZM143.923 20.4029V15.2734H144.669L146.478 18.9297L148.269 15.2734H148.997V20.4029H148.419V16.0391L146.46 20.0489L144.501 16.0391V20.4029H143.923Z" fill="#002854"/>
<path d="M4.46455 7.57457L0.678378 3.78845L4.46455 0L7.36632 2.90193H24.0514C27.7793 2.90193 30.8108 5.93348 30.8108 9.66131C30.8108 13.3891 27.7793 16.4207 24.0514 16.4207H23.9348V14.6519H24.0514C26.8032 14.6519 29.042 12.4131 29.042 9.65919C29.042 6.90531 26.8032 4.66596 24.0514 4.66596H7.36632L4.46455 7.56768V7.57457ZM23.8162 26.4066H6.75954C4.00778 26.4066 1.76657 24.1678 1.76657 21.4139C1.76657 18.66 4.00555 16.4233 6.75954 16.4233H6.87596V14.654H6.75954C3.0316 14.654 0 17.6861 0 21.4139C0 25.1417 3.0316 28.1733 6.75954 28.1733H23.8162V31.0861L29.5126 27.2889L23.8162 23.4916V26.4045V26.4066Z" fill="#002854"/>
<path d="M10.3575 23.4159V20.1629L11.8375 19.3076C11.8979 19.377 11.9583 19.4443 12.0251 19.5111C13.4696 20.9556 15.8181 20.9556 17.26 19.5111C17.3251 19.4465 17.3877 19.377 17.446 19.3076L18.926 20.1629V23.4159H23.1646V19.1778H19.7166L18.0887 18.2372C18.6038 16.9099 18.3282 15.3445 17.2578 14.2741C16.7073 13.7236 16.0152 13.3696 15.2654 13.2419V11.3168H16.7608V7.07812H12.5222V11.3168H14.0181V13.2419C13.2656 13.3696 12.5741 13.7236 12.0251 14.2741C11.3267 14.9731 10.9415 15.9041 10.9415 16.8918C10.9415 17.3597 11.0289 17.8144 11.1948 18.2372L9.56903 19.1757H6.12109V23.4138H10.3596L10.3575 23.4159ZM20.1755 20.4247H21.9172V22.167H20.1755V20.4247ZM16.0847 18.3337C15.6883 18.73 15.1642 18.9293 14.6428 18.9293C14.1209 18.9293 13.5994 18.73 13.201 18.3337C12.8157 17.9484 12.6032 17.4355 12.6032 16.8918C12.6032 16.3476 12.8157 15.8347 13.201 15.45C13.5862 15.0647 14.0965 14.8517 14.6428 14.8517C15.1891 14.8517 15.6994 15.0647 16.0847 15.45C16.8795 16.2448 16.8795 17.5367 16.0847 18.3316V18.3337ZM13.7717 10.0694V8.32762H15.514V10.0694H13.7717ZM7.36821 20.4247H9.11014V22.167H7.36821V20.4247Z" fill="url(#paint0_linear_15960_19688)"/>
<defs>
<linearGradient id="paint0_linear_15960_19688" x1="21.3868" y1="11.7041" x2="7.89885" y2="25.1937" gradientUnits="userSpaceOnUse">
<stop stop-color="#FFC600"/>
<stop offset="1" stop-color="#FF6D69"/>
</linearGradient>
</defs>
</svg>
