<svg width="149" height="28" viewBox="0 0 149 28" fill="none" xmlns="http://www.w3.org/2000/svg">
<path d="M34.2777 6.78375V1.99273H32.332V1.25781H37.0535V1.99273H35.1083V6.78375H34.2777Z" fill="#002854"/>
<path d="M38.8624 6.85404C38.5504 6.85404 38.2771 6.78778 38.0397 6.65728C37.8022 6.52673 37.6169 6.34004 37.4824 6.10105C37.3474 5.86212 37.2812 5.58906 37.2812 5.28382V2.75781H38.0718V5.14931C38.0718 5.46051 38.1621 5.7075 38.3456 5.89224C38.5262 6.07698 38.772 6.16935 39.0775 6.16935C39.2888 6.16935 39.4797 6.12317 39.651 6.0308C39.8219 5.93843 39.9607 5.80792 40.0654 5.63924V2.75781H40.856V6.77572H40.0654V6.36611C39.7535 6.69341 39.3531 6.85608 38.8624 6.85608V6.85404Z" fill="#002854"/>
<path d="M41.7875 6.79358V2.77563H42.578V3.18525C42.8895 2.85996 43.2922 2.69531 43.7867 2.69531C44.0986 2.69531 44.3705 2.76157 44.6056 2.89209C44.8412 3.02462 45.0242 3.20734 45.1587 3.44429C45.2938 3.68122 45.3599 3.95429 45.3599 4.26553V6.79158H44.5693V4.40008C44.5693 4.08484 44.479 3.83584 44.2998 3.6531C44.121 3.47241 43.8756 3.38004 43.5637 3.38004C43.3523 3.38004 43.1633 3.42623 42.9985 3.51855C42.8313 3.61092 42.6907 3.74147 42.5757 3.91015V6.79158H41.7852L41.7875 6.79358Z" fill="#002854"/>
<path d="M48.2529 8.47626C47.9633 8.47626 47.6774 8.44209 47.398 8.37383C47.1182 8.30558 46.865 8.20716 46.6396 8.08266L46.9474 7.46623C47.1788 7.58267 47.3999 7.66704 47.6071 7.72323C47.8143 7.77947 48.0215 7.80559 48.2286 7.80559C48.5867 7.80559 48.8586 7.72728 49.0397 7.56866C49.2203 7.40999 49.313 7.17306 49.313 6.85781V6.40001C48.9652 6.67912 48.5629 6.81768 48.1039 6.81768C47.73 6.81768 47.3897 6.72531 47.0842 6.54057C46.7784 6.35582 46.5349 6.10683 46.3519 5.79559C46.1708 5.48235 46.0781 5.13698 46.0781 4.75749C46.0781 4.37799 46.1708 4.02457 46.3561 3.71133C46.5409 3.39809 46.7863 3.15112 47.0963 2.96839C47.4041 2.78768 47.7482 2.69531 48.1281 2.69531C48.3492 2.69531 48.5625 2.72944 48.7641 2.79772C48.967 2.86598 49.1561 2.96839 49.3293 3.10493V2.76559H50.1035V6.84575C50.1035 7.37186 49.9448 7.77347 49.6286 8.05258C49.313 8.33165 48.8544 8.47021 48.2529 8.47021V8.47626ZM48.2068 6.13896C48.434 6.13896 48.643 6.09682 48.8362 6.01246C49.0294 5.92814 49.1882 5.81165 49.3148 5.66509V3.84989C49.1942 3.70733 49.0355 3.59489 48.8404 3.51052C48.6453 3.42621 48.434 3.38403 48.2086 3.38403C47.9553 3.38403 47.7277 3.44227 47.5247 3.56076C47.3217 3.6792 47.1606 3.84188 47.0419 4.05069C46.9232 4.2595 46.865 4.49443 46.865 4.75749C46.865 5.02054 46.9232 5.24742 47.0419 5.45628C47.1606 5.66509 47.3235 5.82976 47.5289 5.95421C47.7337 6.07871 47.9609 6.13896 48.2086 6.13896H48.2068Z" fill="#002854"/>
<path d="M52.4341 6.86765C52.0863 6.86765 51.7604 6.81542 51.4587 6.71303C51.1547 6.61061 50.893 6.46204 50.6719 6.26724L51.0983 5.74719C51.3097 5.91587 51.5248 6.04237 51.746 6.12668C51.9676 6.21105 52.1887 6.25318 52.4099 6.25318C52.6958 6.25318 52.9271 6.19899 53.1059 6.09055C53.2852 5.98212 53.3755 5.83956 53.3755 5.66087C53.3755 5.51426 53.3234 5.39782 53.2167 5.3135C53.112 5.22914 52.9472 5.17089 52.726 5.14077L51.9974 5.03839C51.5914 4.98015 51.2897 4.85765 51.0923 4.6669C50.8954 4.47616 50.7966 4.22516 50.7966 3.90992C50.7966 3.67298 50.8632 3.46212 50.9936 3.27943C51.1244 3.09468 51.3097 2.95412 51.5472 2.85372C51.7841 2.75332 52.0579 2.70312 52.3698 2.70312C52.6818 2.70312 52.9532 2.74328 53.2209 2.82561C53.4863 2.90793 53.7438 3.03645 53.991 3.21716L53.5948 3.73723C53.3676 3.59062 53.1525 3.48219 52.9472 3.41394C52.7418 3.34568 52.5309 3.31155 52.3154 3.31155C52.0719 3.31155 51.8768 3.36375 51.7301 3.46613C51.583 3.56855 51.509 3.70106 51.509 3.86573C51.509 4.01835 51.5611 4.13279 51.6677 4.2091C51.7725 4.28541 51.9392 4.3416 52.1664 4.37978L52.9029 4.48216C53.3033 4.54041 53.6069 4.6629 53.8122 4.85365C54.0175 5.04239 54.12 5.29539 54.12 5.61063C54.12 5.84761 54.0455 6.06243 53.8946 6.25318C53.7438 6.44598 53.5445 6.59655 53.2931 6.70703C53.0435 6.81746 52.7558 6.87366 52.4341 6.87366V6.86765Z" fill="#002854"/>
<path d="M56.3523 6.85772C55.9682 6.85772 55.6726 6.76735 55.4672 6.58866C55.2619 6.40993 55.1595 6.14492 55.1595 5.7915V3.43212H54.3047V2.76951H55.1595V1.75147L55.9421 1.55469V2.76951H57.1368V3.43212H55.9421V5.61881C55.9421 5.81962 55.9882 5.96218 56.0809 6.0485C56.1735 6.13486 56.3244 6.17905 56.5357 6.17905C56.6461 6.17905 56.7448 6.17099 56.8314 6.15493C56.9175 6.13887 57.0125 6.11279 57.1131 6.07662V6.74729C57.0083 6.78342 56.8854 6.81154 56.7448 6.8296C56.606 6.84767 56.4752 6.85772 56.3523 6.85772Z" fill="#002854"/>
<path d="M59.5699 6.85781C59.1733 6.85781 58.8176 6.76744 58.4977 6.58475C58.1779 6.40201 57.9241 6.15302 57.7351 5.83577C57.5461 5.51652 57.4492 5.1631 57.4492 4.77355C57.4492 4.384 57.54 4.03463 57.723 3.72339C57.9041 3.41215 58.1494 3.16518 58.4553 2.97643C58.7612 2.78969 59.103 2.69531 59.4833 2.69531C59.8632 2.69531 60.1831 2.78969 60.475 2.97643C60.7665 3.16317 61.0002 3.41615 61.1711 3.73344C61.3419 4.05269 61.4285 4.41012 61.4285 4.81168V5.02454H58.25C58.2863 5.25147 58.3669 5.45022 58.4917 5.62091C58.616 5.79159 58.7752 5.92814 58.9703 6.03052C59.1653 6.13295 59.3767 6.18514 59.6021 6.18514C59.8032 6.18514 59.9922 6.15302 60.171 6.09077C60.3502 6.02852 60.5011 5.9442 60.6217 5.83777L61.1208 6.3277C60.8936 6.50644 60.6538 6.63894 60.4005 6.72731C60.1472 6.81363 59.8716 6.85781 59.5699 6.85781ZM58.2579 4.43419H60.6459C60.6096 4.22938 60.5332 4.04669 60.4205 3.88601C60.3079 3.72539 60.1691 3.59889 60.0062 3.50652C59.8432 3.41415 59.6603 3.36796 59.461 3.36796C59.2617 3.36796 59.0769 3.41415 58.9079 3.50652C58.7389 3.59889 58.5983 3.72339 58.4856 3.88201C58.3729 4.04063 58.2966 4.22337 58.2603 4.43419H58.2579Z" fill="#002854"/>
<path d="M62.1815 6.79358V2.77563H62.9721V3.18525C63.284 2.85996 63.6863 2.69531 64.1812 2.69531C64.4932 2.69531 64.7646 2.76157 65.0002 2.89209C65.2353 3.02462 65.4183 3.20734 65.5533 3.44429C65.6878 3.68122 65.7544 3.95429 65.7544 4.26553V6.79158H64.9639V4.40008C64.9639 4.08484 64.8731 3.83584 64.6943 3.6531C64.515 3.47241 64.2697 3.38004 63.9577 3.38004C63.7468 3.38004 63.5578 3.42623 63.3925 3.51855C63.2258 3.61092 63.0848 3.74147 62.9702 3.91015V6.79158H62.1797L62.1815 6.79358Z" fill="#002854"/>
<path d="M32.1289 25.0287L36.9551 13.3203H39.7695L44.5292 25.0287H41.8977L40.7086 21.9686H35.8484L34.6598 25.0287H32.1289ZM36.6031 20.0108H39.9707L38.3109 15.6957L36.6008 20.0108H36.6031Z" fill="#002854"/>
<path d="M45.5195 25.0287V13.3203H51.4017C52.1722 13.3203 52.8543 13.4789 53.4456 13.7962C54.0373 14.1134 54.4978 14.5492 54.8279 15.1013C55.1575 15.6536 55.3228 16.2861 55.3228 16.9989C55.3228 17.7117 55.1575 18.3101 54.8279 18.8562C54.4978 19.4024 54.035 19.8321 53.4377 20.1433C52.8403 20.4566 52.1601 20.6112 51.4017 20.6112H47.9499V25.0267H45.5195V25.0287ZM47.948 18.6073H51.1321C51.6573 18.6073 52.08 18.4587 52.3975 18.1635C52.7155 17.8683 52.8743 17.4868 52.8743 17.017C52.8743 16.5471 52.7155 16.1334 52.3975 15.8383C52.08 15.5431 51.6573 15.3945 51.1321 15.3945H47.948V18.6052V18.6073Z" fill="#002854"/>
<path d="M60.3008 25.0287V13.3203H69.3172V15.4286H62.7311V18.1053H67.0703V20.1293H62.7311V22.9224H69.3838V25.0307H60.3008V25.0287Z" fill="#002854"/>
<path d="M74.206 25.1881C73.4233 25.1881 72.6891 25.0857 72.0033 24.8788C71.317 24.672 70.7216 24.3809 70.2188 24.0014L71.3576 22.4633C71.8604 22.7986 72.3432 23.0496 72.8078 23.2163C73.2706 23.3829 73.7311 23.4673 74.1897 23.4673C74.7027 23.4673 75.1134 23.3809 75.4211 23.2083C75.7289 23.0356 75.8816 22.8086 75.8816 22.5315C75.8816 22.3087 75.795 22.13 75.6223 21.9954C75.4491 21.8609 75.1716 21.7665 74.7935 21.7103L73.1174 21.4593C72.2566 21.3247 71.6011 21.0436 71.148 20.6139C70.6955 20.1842 70.4702 19.618 70.4702 18.9172C70.4702 18.3489 70.6191 17.857 70.9148 17.4454C71.2104 17.0337 71.6332 16.7145 72.1802 16.4916C72.7273 16.2687 73.3651 16.1562 74.0914 16.1562C74.7391 16.1562 75.3667 16.2466 75.9761 16.4233C76.586 16.602 77.1573 16.8751 77.6941 17.2426L76.5879 18.7305C76.1069 18.4293 75.6465 18.2124 75.206 18.0779C74.7651 17.9433 74.3266 17.8771 73.8903 17.8771C73.4536 17.8771 73.144 17.9554 72.8926 18.112C72.6407 18.2686 72.5164 18.4754 72.5164 18.7305C72.5164 18.9654 72.6048 19.1481 72.7836 19.2827C72.9629 19.4172 73.2646 19.5176 73.6892 19.5839L75.3648 19.8188C76.2359 19.9413 76.8998 20.2204 77.3584 20.6561C77.817 21.0918 78.0461 21.642 78.0461 22.3127C78.0461 22.8709 77.8794 23.3649 77.5433 23.7926C77.2076 24.2222 76.7527 24.5616 76.1772 24.8126C75.6022 25.0636 74.9462 25.1881 74.2078 25.1881H74.206Z" fill="#002854"/>
<path d="M82.4521 25.1881C81.6694 25.1881 80.9352 25.0857 80.2494 24.8788C79.5613 24.672 78.9677 24.3809 78.4648 24.0014L79.6037 22.4633C80.1065 22.7986 80.5893 23.0496 81.0539 23.2163C81.5167 23.3829 81.9772 23.4673 82.4358 23.4673C82.9488 23.4673 83.3595 23.3809 83.6672 23.2083C83.975 23.0356 84.1277 22.8086 84.1277 22.5315C84.1277 22.3087 84.0411 22.13 83.8684 21.9954C83.6952 21.8609 83.4177 21.7665 83.0396 21.7103L81.3635 21.4593C80.5027 21.3247 79.8472 21.0436 79.3941 20.6139C78.9416 20.1842 78.7163 19.618 78.7163 18.9172C78.7163 18.3489 78.8652 17.857 79.1609 17.4454C79.4565 17.0337 79.8793 16.7145 80.4263 16.4916C80.9734 16.2687 81.6112 16.1562 82.3375 16.1562C82.9852 16.1562 83.6128 16.2466 84.2222 16.4233C84.8316 16.602 85.4034 16.8751 85.9402 17.2426L84.834 18.7305C84.353 18.4293 83.8926 18.2124 83.4517 18.0779C83.0112 17.9433 82.5727 17.8771 82.1364 17.8771C81.6997 17.8771 81.3901 17.9554 81.1387 18.112C80.8868 18.2686 80.762 18.4754 80.762 18.7305C80.762 18.9654 80.8509 19.1481 81.0297 19.2827C81.209 19.4172 81.5107 19.5176 81.9353 19.5839L83.6109 19.8188C84.482 19.9413 85.1459 20.2204 85.6045 20.6561C86.0631 21.0918 86.2922 21.642 86.2922 22.3127C86.2922 22.8709 86.1255 23.3649 85.7893 23.7926C85.4537 24.2222 84.9988 24.5616 84.4233 24.8126C83.8483 25.0636 83.1923 25.1881 82.4539 25.1881H82.4521Z" fill="#002854"/>
<path d="M91.8038 25.1881C90.9327 25.1881 90.1421 24.9853 89.4321 24.5777C88.7221 24.17 88.1606 23.6299 87.7481 22.9552C87.3361 22.2805 87.1289 21.5195 87.1289 20.6722C87.1289 19.8248 87.3277 19.0739 87.7239 18.3891C88.1206 17.7024 88.6597 17.1602 89.3413 16.7587C90.0234 16.3571 90.7777 16.1562 91.6045 16.1562C92.4314 16.1562 93.188 16.3591 93.8416 16.7667C94.4953 17.1743 95.0084 17.7285 95.3827 18.4313C95.757 19.1341 95.9437 19.9373 95.9437 20.8408V21.4432H89.4764C89.5769 21.7886 89.7441 22.1018 89.9792 22.379C90.2148 22.658 90.4983 22.8729 90.8344 23.0235C91.1701 23.1741 91.5324 23.2484 91.9225 23.2484C92.3127 23.2484 92.6609 23.1901 92.9947 23.0737C93.3309 22.9573 93.6144 22.7866 93.8496 22.5637L95.3585 23.9351C94.8212 24.3709 94.2723 24.6881 93.7071 24.8889C93.1437 25.0897 92.5077 25.1901 91.8056 25.1901L91.8038 25.1881ZM89.44 19.8027H93.6968C93.6065 19.4574 93.4594 19.1542 93.2522 18.8911C93.045 18.6301 92.7978 18.4253 92.5059 18.2807C92.2163 18.1361 91.9025 18.0638 91.5687 18.0638C91.2106 18.0638 90.8866 18.1341 90.597 18.2726C90.307 18.4132 90.0639 18.612 89.8688 18.8751C89.6733 19.1381 89.5308 19.4473 89.4419 19.8027H89.44Z" fill="#002854"/>
<path d="M97.3477 25.0218V16.3073H99.6434V17.0262C100.313 16.4358 101.134 16.1406 102.108 16.1406C102.777 16.1406 103.373 16.2892 103.892 16.5844C104.411 16.8795 104.815 17.2872 105.107 17.8052C105.397 18.3233 105.544 18.9237 105.544 19.6044V25.0238H103.264V19.9558C103.264 19.3875 103.099 18.9377 102.769 18.6084C102.44 18.2791 101.995 18.1145 101.438 18.1145C101.047 18.1145 100.699 18.1888 100.4 18.3393C100.098 18.4899 99.8464 18.7048 99.6453 18.9839V25.0218H97.35H97.3477Z" fill="#002854"/>
<path d="M111.171 25.1545C110.21 25.1545 109.481 24.9336 108.984 24.4939C108.487 24.0541 108.238 23.4156 108.238 22.5782V18.2129H106.445V16.3054H108.238V14.0805L110.517 13.5625V16.3054H113.032V18.2129H110.517V22.0943C110.517 22.4959 110.61 22.783 110.793 22.9557C110.978 23.1284 111.288 23.2148 111.722 23.2148C111.957 23.2148 112.167 23.2007 112.35 23.1726C112.535 23.1445 112.738 23.0983 112.962 23.03V24.9035C112.726 24.9818 112.436 25.042 112.09 25.0882C111.744 25.1323 111.436 25.1545 111.169 25.1545H111.171Z" fill="#002854"/>
<path d="M115.315 15.2724C114.957 15.2724 114.651 15.1439 114.394 14.8869C114.136 14.6298 114.008 14.3186 114.008 13.9512C114.008 13.5837 114.136 13.2905 114.394 13.0396C114.651 12.7886 114.957 12.6641 115.315 12.6641C115.673 12.6641 115.993 12.7886 116.244 13.0396C116.496 13.2905 116.621 13.5937 116.621 13.9512C116.621 14.3086 116.496 14.6319 116.244 14.8869C115.993 15.1439 115.683 15.2724 115.315 15.2724ZM114.174 25.0231V16.3085H116.47V25.0231H114.174Z" fill="#002854"/>
<path d="M121.045 25.1765C120.432 25.1765 119.883 25.062 119.404 24.8331C118.923 24.6042 118.549 24.2889 118.281 23.8874C118.014 23.4858 117.879 23.0239 117.879 22.4998C117.879 21.6625 118.191 21.0139 118.817 20.5521C119.442 20.0903 120.313 19.8573 121.429 19.8573C122.19 19.8573 122.904 19.9738 123.574 20.2088V19.5722C123.574 19.0702 123.417 18.6907 123.105 18.4357C122.791 18.1787 122.335 18.0502 121.731 18.0502C121.373 18.0502 120.977 18.1084 120.542 18.2249C120.108 18.3413 119.615 18.5241 119.068 18.7691L118.247 17.0623C118.939 16.7611 119.599 16.5322 120.224 16.3756C120.85 16.2189 121.476 16.1406 122.102 16.1406C123.296 16.1406 124.218 16.4217 124.865 16.986C125.513 17.5502 125.837 18.3433 125.837 19.3694V25.0238H123.574V24.4054C123.216 24.6725 122.832 24.8692 122.417 24.9917C122.003 25.1142 121.546 25.1765 121.043 25.1765H121.045ZM120.058 22.4517C120.058 22.787 120.203 23.052 120.494 23.2468C120.784 23.4416 121.17 23.5399 121.651 23.5399C122.031 23.5399 122.379 23.4958 122.699 23.4054C123.017 23.3171 123.31 23.1705 123.578 22.9697V21.6987C123.298 21.5762 123.009 21.4898 122.707 21.4396C122.405 21.3894 122.081 21.3653 121.735 21.3653C121.21 21.3653 120.8 21.4597 120.504 21.6505C120.209 21.8392 120.06 22.1083 120.06 22.4537L120.058 22.4517Z" fill="#002854"/>
<path d="M127.578 25.0315V13.323L129.873 12.9375V25.0315H127.578Z" fill="#002854"/>
<path d="M134.936 25.1881C134.154 25.1881 133.42 25.0857 132.733 24.8788C132.048 24.672 131.452 24.3809 130.949 24.0014L132.088 22.4633C132.59 22.7986 133.073 23.0496 133.538 23.2163C134.001 23.3829 134.462 23.4673 134.92 23.4673C135.433 23.4673 135.843 23.3809 136.151 23.2083C136.459 23.0356 136.612 22.8086 136.612 22.5315C136.612 22.3087 136.525 22.13 136.352 21.9954C136.18 21.8609 135.902 21.7665 135.524 21.7103L133.848 21.4593C132.987 21.3247 132.331 21.0436 131.879 20.6139C131.426 20.1842 131.201 19.618 131.201 18.9172C131.201 18.3489 131.349 17.857 131.645 17.4454C131.941 17.0337 132.363 16.7145 132.91 16.4916C133.458 16.2687 134.095 16.1562 134.821 16.1562C135.469 16.1562 136.097 16.2466 136.707 16.4233C137.316 16.602 137.887 16.8751 138.425 17.2426L137.318 18.7305C136.837 18.4293 136.376 18.2124 135.936 18.0779C135.496 17.9433 135.057 17.8771 134.62 17.8771C134.184 17.8771 133.874 17.9554 133.623 18.112C133.371 18.2686 133.246 18.4754 133.246 18.7305C133.246 18.9654 133.335 19.1481 133.514 19.2827C133.693 19.4172 133.995 19.5176 134.419 19.5839L136.095 19.8188C136.966 19.9413 137.63 20.2204 138.088 20.6561C138.547 21.0918 138.777 21.642 138.777 22.3127C138.777 22.8709 138.609 23.3649 138.274 23.7926C137.938 24.2222 137.483 24.5616 136.908 24.8126C136.332 25.0636 135.677 25.1881 134.938 25.1881H134.936Z" fill="#002854"/>
<path d="M141.34 17.9205V13.7882H139.648V13.3203H143.553V13.7882H141.861V17.9205H141.342H141.34ZM144.441 17.9205V13.3203H145.11L146.736 16.5993L148.345 13.3203H148.999V17.9205H148.48V14.007L146.72 17.6033L144.959 14.007V17.9205H144.441Z" fill="#002854"/>
<path d="M12.3208 12.0534H10.6229V10.6538H12.3208V12.0534ZM15.5658 13.937H10.6249V15.3366H15.5658V13.937ZM9.08189 20.5575H7.67969V22.2483H9.08189V20.5575ZM18.5695 20.5575H17.1672V22.2483H18.5695V20.5575ZM12.2444 20.5575H10.8422V22.2483H12.2444V20.5575ZM15.4069 20.5575H14.0047V22.2483H15.4069V20.5575ZM15.5658 17.0795H10.6249V18.4792H15.5658V17.0795ZM18.5695 10.4329L15.3023 7.17188H7.67969V18.69H9.08189V8.56946H14.7208L17.1672 11.0113V18.69H18.5695V10.4329Z" fill="url(#paint0_linear_15960_19524)"/>
<path d="M1.85886 15.6748L0.0341743 15.8073C0.0120584 15.4921 0 15.1708 0 14.8535C0 8.66671 4.32327 3.46992 10.1131 2.11246V0L16.1102 3.99L16.1062 3.994C15.1526 3.73294 14.1487 3.59238 13.1127 3.59238C6.88221 3.59238 1.83073 8.63458 1.83073 14.8535C1.83073 15.1286 1.84074 15.4037 1.86086 15.6748H1.85886ZM13.1106 26.1147C7.86397 26.1147 3.45223 22.5383 2.19083 17.6949H2.18683L1.72206 24.8716L3.55676 23.8154C6.06545 26.4801 9.56191 27.9359 13.1328 27.9359C15.3558 27.9359 17.6071 27.3717 19.6669 26.1849C19.9425 26.0263 20.214 25.8556 20.4756 25.6789L19.4495 24.1689C17.6429 25.3958 15.4604 26.1147 13.1106 26.1147ZM25.662 18.6327C27.38 12.9499 25.0325 6.61449 19.665 3.52012C19.3894 3.36149 19.1059 3.21086 18.8218 3.07432L18.0233 4.71689C21.7933 6.54022 24.3904 10.3957 24.3904 14.8555C24.3904 17.9921 23.1049 20.8275 21.033 22.8697V22.8797L27.4946 19.6909L25.662 18.6347V18.6327Z" fill="#002854"/>
<defs>
<linearGradient id="paint0_linear_15960_19524" x1="6.62552" y1="21.196" x2="17.9671" y2="9.83161" gradientUnits="userSpaceOnUse">
<stop stop-color="#D030E8"/>
<stop offset="1" stop-color="#FF6D69"/>
</linearGradient>
</defs>
</svg>
